<svg width="24" height="24" viewBox="0 0 24 24" version="1.1" xmlns="http://www.w3.org/2000/svg" xmlns:xlink="http://www.w3.org/1999/xlink">
<title>Search</title>
<desc>Search Button</desc>
<g id="Canvas" transform="translate(-839 240)">
    <g id="Vector">
        <use xlink:href="#search0_fill" transform="translate(853.512 -225.535)" fill="#FCF7F8"/>
    </g>
    <g id="Vector">
        <use xlink:href="#search1_fill" transform="translate(839.895 -239.152)" fill="#FCF7F8"/>
    </g>
</g>

<defs>
    <path id="search0_fill" d="M 8.0738 5.11715L 2.95706 5.27445e-07C 2.19466 1.1857 1.1857 2.19416 -3.4789e-07 2.9566L 5.11715 8.07375C 5.93407 8.89048 7.25859 8.89048 8.07375 8.07375C 8.89071 7.25836 8.89071 5.93384 8.0738 5.11715Z"/>
    <path id="search1_fill" d="M 16.7275 8.3638C 16.7275 3.74501 12.9827 0 8.3638 0C 3.74501 0 2.18328e-12 3.74501 2.18328e-12 8.3638C 2.18328e-12 12.9826 3.74501 16.7274 8.3638 16.7274C 12.9827 16.7274 16.7275 12.9826 16.7275 8.3638ZM 8.3638 14.6364C 4.90474 14.6364 2.09101 11.8229 2.09101 8.36385C 2.09101 4.90479 4.90474 2.09105 8.3638 2.09105C 11.8228 2.09105 14.6367 4.90479 14.6367 8.36385C 14.6367 11.8229 11.8228 14.6364 8.3638 14.6364Z"/>
</defs>
</svg>
