<svg width="162" height="128" viewBox="0 0 162 128" version="1.1" xmlns="http://www.w3.org/2000/svg" xmlns:xlink="http://www.w3.org/1999/xlink">
    <title>Tag</title>
    <desc>Tag</desc>
        <g id="Canvas" transform="translate(236 169)">
            <g id="Vector">
                <use xlink:href="#tag0_fill" transform="translate(-236 -169)" fill="#DFE2E5"/>
                <use xlink:href="#path1_fill" transform="translate(-236 -169)" fill="#DFE2E5"/>
            </g>
        </g>
    <defs>
    <path id="tag0_fill" d="M 129.104 75.7021C 129.104 72.7734 128.053 70.2101 125.951 68.0129L 65.0212 7.68838C 62.8626 5.54649 59.9653 3.7307 56.3293 2.23866C 52.6935 0.746317 49.3691 0 46.3581 0L 10.9078 0C 7.95409 0 5.39674 1.07095 3.23876 3.21017C 1.07929 5.35058 0 7.88546 0 10.8148L 0 45.9619C 0 48.9471 0.751861 52.2411 2.25767 55.8469C 3.76378 59.4527 5.59672 62.2956 7.7547 64.3804L 68.6853 124.874C 70.7875 126.958 73.3439 128 76.3543 128C 79.3086 128 81.8946 126.958 84.1099 124.874L 125.952 83.3053C 128.053 81.2205 129.104 78.6877 129.104 75.7021ZM 34.9826 34.6825C 32.8518 36.7948 30.281 37.8515 27.2697 37.8515C 24.2595 37.8515 21.6888 36.7948 19.5579 34.6825C 17.4271 32.5699 16.3627 30.022 16.3627 27.0367C 16.3627 24.0511 17.4271 21.5024 19.5579 19.3909C 21.6888 17.2783 24.2595 16.2216 27.2697 16.2216C 30.281 16.2216 32.8518 17.2783 34.9826 19.3909C 37.1122 21.5024 38.1784 24.0514 38.1784 27.0367C 38.1781 30.022 37.1122 32.5699 34.9826 34.6825Z"/>
    <path id="path1_fill" d="M 158.673 68.0138L 97.7428 7.68956C 95.5849 5.54767 92.687 3.73189 89.0506 2.23955C 85.4161 0.747508 82.0922 0.00119066 79.0809 0.00119066L 59.9925 0.00119066C 63.0035 0.00119066 66.3268 0.747508 69.9622 2.23955C 73.5991 3.73278 76.4964 5.54856 78.6553 7.68956L 139.585 68.0138C 141.688 70.2104 142.74 72.7734 142.74 75.7021C 142.74 78.6877 141.688 81.2202 139.585 83.3053L 99.5325 123.015C 101.239 124.761 102.744 126.028 104.049 126.817C 105.357 127.606 107.033 128 109.077 128C 112.033 128 114.618 126.958 116.831 124.874L 158.673 83.3056C 160.776 81.2205 161.829 78.688 161.829 75.7024C 161.827 72.7734 160.776 70.2104 158.673 68.0138Z"/>
    </defs>
</svg>
